<svg id="Layer_1" data-name="Layer 1" xmlns="http://www.w3.org/2000/svg" viewBox="0 0 20 20"><title>claender</title><path d="M11.58,10.53h0a1.05,1.05,0,1,0,1.05,1.05,1.05,1.05,0,0,0-1.05-1.05h0ZM8.42,9.47A1.05,1.05,0,1,0,7.37,8.42,1,1,0,0,0,8.42,9.47h0Zm3.16-2.1h0a1.05,1.05,0,1,0,1.05,1.05,1.05,1.05,0,0,0-1.05-1.05h0ZM12.63,2.1H7.37v2.1h5.26V2.1Zm2.1,7.37a1.05,1.05,0,1,0-1.05-1.05,1.05,1.05,0,0,0,1.05,1.05h0Zm0,3.16a1.05,1.05,0,1,0-1.05-1.05,1.05,1.05,0,0,0,1.05,1.05h0Zm-6.31,0a1.05,1.05,0,1,0-1.05-1.05,1.05,1.05,0,0,0,1.05,1.05h0ZM5.26,15.79a1.05,1.05,0,1,0-1.05-1.05,1.06,1.06,0,0,0,1.05,1.05h0ZM17.9,2.1H16.84v2.1H17.9V17.9H2.1V4.21H3.16V2.1H2.1A2.11,2.11,0,0,0,0,4.21V17.9A2.1,2.1,0,0,0,2.1,20H17.9A2.1,2.1,0,0,0,20,17.9V4.21a2.1,2.1,0,0,0-2.1-2.1h0ZM5.26,12.63a1.05,1.05,0,1,0-1.05-1.05,1.05,1.05,0,0,0,1.05,1.05h0Zm0-3.16A1.05,1.05,0,1,0,4.21,8.42,1.05,1.05,0,0,0,5.26,9.47h0Zm3.16,6.32a1.05,1.05,0,1,0-1.05-1.05,1.05,1.05,0,0,0,1.05,1.05h0ZM5.26,4.21A1.05,1.05,0,0,0,6.32,3.16V1.05a1.05,1.05,0,0,0-2.11,0v2.1A1.05,1.05,0,0,0,5.26,4.21h0Zm9.47,0a1.05,1.05,0,0,0,1.05-1.05V1.05a1.05,1.05,0,1,0-2.1,0v2.1a1.05,1.05,0,0,0,1.05,1.05h0Zm0,0" transform="translate(0 0)" style="fill:#6d6e70"/></svg>