<?xml version="1.0" encoding="utf-8"?>
<!-- Generator: Adobe Illustrator 18.0.0, SVG Export Plug-In . SVG Version: 6.00 Build 0)  -->
<!DOCTYPE svg PUBLIC "-//W3C//DTD SVG 1.1//EN" "http://www.w3.org/Graphics/SVG/1.1/DTD/svg11.dtd">
<svg version="1.1" id="Layer_1" xmlns="http://www.w3.org/2000/svg" xmlns:xlink="http://www.w3.org/1999/xlink" x="0px" y="0px"
	 viewBox="0 0 575 329.3" enable-background="new 0 0 575 329.3" xml:space="preserve">
<g>
	<path fill="#FFFFFF" d="M1.5,328.5V280h12.1c4.9,0,8.8,1.2,11.7,3.6s4.3,5.7,4.3,9.9c0,2.8-0.7,5.3-2.1,7.3
		c-1.4,2.1-3.4,3.6-6.1,4.6c1.5,1,3.1,2.4,4.5,4.2c1.5,1.8,3.6,4.8,6.2,9.2c1.7,2.8,3,4.8,4.1,6.2l2.6,3.5h-8.3l-2.1-3.2
		c-0.1-0.1-0.2-0.3-0.4-0.6l-1.4-1.9l-2.1-3.5l-2.3-3.8c-1.4-2-2.7-3.6-3.9-4.8c-1.2-1.2-2.3-2-3.2-2.5c-1-0.5-2.6-0.8-4.8-0.8H8.4
		v21.1H1.5z M10.5,285.9H8.4v15.3H11c3.5,0,5.9-0.3,7.2-0.9c1.3-0.6,2.3-1.5,3.1-2.7s1.1-2.6,1.1-4.1c0-1.5-0.4-2.9-1.2-4.1
		c-0.8-1.2-1.9-2.1-3.4-2.6C16.3,286.2,13.9,285.9,10.5,285.9z"/>
	<path fill="#FFFFFF" d="M44.3,280h6.9v48.5h-6.9V280z"/>
	<path fill="#FFFFFF" d="M92.7,280h6.9l-20.5,48.7h-1.6L56.6,280h7l14.6,34.1L92.7,280z"/>
	<path fill="#FFFFFF" d="M104.9,280h27.5v6.2h-20.5V301h19.9v6.2h-19.9v15.1h21.2v6.2h-28.2V280z"/>
	<path fill="#FFFFFF" d="M140.7,328.5V280h12.1c4.9,0,8.8,1.2,11.7,3.6s4.3,5.7,4.3,9.9c0,2.8-0.7,5.3-2.1,7.3
		c-1.4,2.1-3.4,3.6-6.1,4.6c1.5,1,3.1,2.4,4.5,4.2c1.5,1.8,3.6,4.8,6.2,9.2c1.7,2.8,3,4.8,4.1,6.2l2.6,3.5h-8.3l-2.1-3.2
		c-0.1-0.1-0.2-0.3-0.4-0.6l-1.4-1.9l-2.1-3.5l-2.3-3.8c-1.4-2-2.7-3.6-3.9-4.8c-1.2-1.2-2.3-2-3.2-2.5c-1-0.5-2.6-0.8-4.8-0.8h-1.8
		v21.1H140.7z M149.7,285.9h-2.1v15.3h2.6c3.5,0,5.9-0.3,7.2-0.9c1.3-0.6,2.3-1.5,3.1-2.7s1.1-2.6,1.1-4.1c0-1.5-0.4-2.9-1.2-4.1
		c-0.8-1.2-1.9-2.1-3.4-2.6C155.5,286.2,153.1,285.9,149.7,285.9z"/>
	<path fill="#FFFFFF" d="M195.4,308.2l-5.3-3.2c-3.3-2-5.7-4-7.1-6c-1.4-2-2.1-4.2-2.1-6.8c0-3.8,1.3-6.9,4-9.3
		c2.6-2.4,6.1-3.6,10.3-3.6c4,0,7.8,1.1,11.1,3.4v7.9c-3.5-3.4-7.3-5-11.3-5c-2.3,0-4.1,0.5-5.6,1.6c-1.5,1-2.2,2.4-2.2,4
		c0,1.5,0.5,2.8,1.6,4.1s2.8,2.6,5.2,4l5.3,3.1c5.9,3.5,8.9,8,8.9,13.5c0,3.9-1.3,7-3.9,9.5c-2.6,2.4-6,3.6-10.2,3.6
		c-4.8,0-9.2-1.5-13.1-4.4v-8.8c3.7,4.7,8.1,7.1,13,7.1c2.2,0,4-0.6,5.4-1.8c1.4-1.2,2.2-2.7,2.2-4.5
		C201.8,313.6,199.7,310.8,195.4,308.2z"/>
	<path fill="#FFFFFF" d="M216,280h6.9v48.5H216V280z"/>
	<path fill="#FFFFFF" d="M233.8,328.4V280h16.3c6.6,0,11.8,1,15.7,3c3.8,2,6.9,4.9,9.2,8.7c2.3,3.8,3.4,8,3.4,12.6
		c0,3.2-0.6,6.3-1.9,9.3c-1.2,3-3,5.6-5.3,7.8c-2.4,2.3-5.1,4.1-8.2,5.2c-1.8,0.7-3.5,1.2-5,1.4c-1.5,0.2-4.4,0.4-8.7,0.4H233.8z
		 M249.4,286.2h-8.7v36.1h8.9c3.5,0,6.2-0.2,8.1-0.7c1.9-0.5,3.5-1.1,4.8-1.8c1.3-0.7,2.5-1.6,3.5-2.7c3.4-3.5,5.1-7.9,5.1-13.2
		c0-5.2-1.8-9.5-5.3-12.7c-1.3-1.2-2.8-2.2-4.5-3c-1.7-0.8-3.3-1.3-4.8-1.6C255.2,286.3,252.7,286.2,249.4,286.2z"/>
	<path fill="#FFFFFF" d="M287,280h27.5v6.2H294V301h19.9v6.2H294v15.1h21.2v6.2H287V280z"/>
	<path fill="#FFFFFF" d="M342.3,280h27.5v6.2h-20.5V301h19.9v6.2h-19.9v15.1h21.2v6.2h-28.2V280z"/>
	<path fill="#FFFFFF" d="M389.9,308.2l-5.3-3.2c-3.3-2-5.7-4-7.1-6c-1.4-2-2.1-4.2-2.1-6.8c0-3.8,1.3-6.9,4-9.3
		c2.6-2.4,6.1-3.6,10.3-3.6c4,0,7.8,1.1,11.1,3.4v7.9c-3.5-3.4-7.3-5-11.3-5c-2.3,0-4.1,0.5-5.6,1.6c-1.5,1-2.2,2.4-2.2,4
		c0,1.5,0.5,2.8,1.6,4.1s2.8,2.6,5.2,4l5.3,3.1c5.9,3.5,8.9,8,8.9,13.5c0,3.9-1.3,7-3.9,9.5c-2.6,2.4-6,3.6-10.2,3.6
		c-4.8,0-9.2-1.5-13.1-4.4v-8.8c3.7,4.7,8.1,7.1,13,7.1c2.2,0,4-0.6,5.4-1.8c1.4-1.2,2.2-2.7,2.2-4.5
		C396.3,313.6,394.1,310.8,389.9,308.2z"/>
	<path fill="#FFFFFF" d="M452.2,317.3v7.6c-5.1,2.8-11,4.2-17.6,4.2c-5.4,0-10-1.1-13.8-3.3c-3.8-2.2-6.8-5.2-9-9
		c-2.2-3.8-3.3-7.9-3.3-12.4c0-7.1,2.5-13,7.5-17.8s11.2-7.2,18.6-7.2c5.1,0,10.7,1.3,17,4v7.5c-5.7-3.2-11.2-4.9-16.6-4.9
		c-5.6,0-10.2,1.8-13.8,5.3c-3.7,3.5-5.5,7.9-5.5,13.2c0,5.3,1.8,9.7,5.4,13.1c3.6,3.4,8.2,5.1,13.8,5.1
		C440.9,322.7,446.6,320.9,452.2,317.3z"/>
	<path fill="#FFFFFF" d="M478,279.7h4.9l21.7,48.8h-7.1l-6.5-14.4h-20.7l-6.1,14.4h-7.1L478,279.7z M488.2,308l-7.8-17.6l-7.3,17.6
		H488.2z"/>
	<path fill="#FFFFFF" d="M509.6,328.5V280h15.4c4.6,0,8.3,1.2,11.1,3.7c2.8,2.5,4.1,5.9,4.1,10.1c0,2.8-0.7,5.3-2.1,7.5
		c-1.4,2.2-3.3,3.8-5.8,4.7c-2.5,1-6,1.5-10.6,1.5h-5.1v21H509.6z M523.7,286.1h-7.2v15.2h7.6c2.8,0,5-0.7,6.5-2s2.3-3.2,2.3-5.7
		C533,288.6,529.9,286.1,523.7,286.1z"/>
	<path fill="#FFFFFF" d="M546.2,280h27.5v6.2h-20.5V301H573v6.2h-19.9v15.1h21.2v6.2h-28.2V280z"/>
</g>
<g>
	<g>
		<linearGradient id="SVGID_2_" gradientUnits="userSpaceOnUse" x1="157.2985" y1="129.5016" x2="414.3318" y2="129.5016">
			<stop  offset="0" style="stop-color:#91BDC0"/>
			<stop  offset="1" style="stop-color:#312D45"/>
		</linearGradient>
		<polygon fill="url(#SVGID_2_)" points="285.8,258 157.3,129.5 285.8,1 414.3,129.5 		"/>
		<g>
			<defs>
				<polygon id="SVGID_63_" points="285.8,257.9 166.4,138.4 282.6,10.5 408.2,135.8 				"/>
			</defs>
			<clipPath id="SVGID_4_">
				<use xlink:href="#SVGID_63_"  overflow="visible"/>
			</clipPath>
			<path clip-path="url(#SVGID_4_)" fill="#FFFFFF" d="M391.8,167.7c-1.4,17-36.9,30.4-58.8,30.4c-21.9,0-47.4-32.5-55.1-47.4
				c-7.8-14.8,0-29.7,9.2-33.2c9.2-3.5,19.1,12.7,19.1,12.7s-2.1-9.9-4.9-14.8s-0.3-5.6,2.1-3.5c3.1,2.7,8.5,10.6,11.3,12
				c2.8,1.4,8.5-0.7,9.2-5.7c0.7-4.9-4.2-19.8-24.7-24s-46.7,2.1-50.9,31.1s9.9,50.9,21.2,62.9c11.3,12,29.7,27.6,24.7,48.8
				c-4.9,21.2-50.6,61.4-69,59.3s35.4,16.2,35.4,16.2l149.5,0.2l24.7-136.4L391.8,167.7z"/>
		</g>
		<path fill="#FFFFFF" d="M311.3,128.5c0,0,6.1-0.3,9,0c4.8,0.5,0.2,4.2,1.6,8.5c1.3,4.2,4.2,7.4,4.2,7.4s2.4,3.2-1.6,3.2
			c-4,0-10.6-3.2-12.5-8.2C310.2,134.3,311.3,128.5,311.3,128.5z"/>
	</g>
	<g>
		<defs>
			<path id="SVGID_65_" d="M322.1,87.2c0-8.5-15.9-15.4-35.6-15.4c-19.7,0-35.6,6.9-35.6,15.4l-0.3-34.6c0,0,4.2-22.9,24.8-22.9
				s45.7,5.2,48,20.6S322.1,87.2,322.1,87.2z"/>
		</defs>
		<clipPath id="SVGID_6_">
			<use xlink:href="#SVGID_65_"  overflow="visible"/>
		</clipPath>
		<path clip-path="url(#SVGID_6_)" fill="#FFFFFF" d="M310.9,50.6c-1.2,0-2.2,1-2.2,2.3c0,0.6,0.3,1.2,0.7,1.6c-2.4,2.5-7,6.8-8.9,6
			c-1.6-0.7-2-4-2.1-6.3c0,0,0,0,0,0c1.2,0,2.2-1,2.2-2.3c0-1.3-1-2.3-2.2-2.3c-1.2,0-2.2,1-2.2,2.3c0,1,0.6,1.8,1.5,2.2
			c-1,2.3-3.1,5.3-6.9,3.6c-2.9-1.3-4.2-6.8-4.8-10.8c1-0.2,1.8-1.1,1.8-2.2c0-1.3-1-2.3-2.2-2.3c-1.2,0-2.2,1-2.2,2.3
			c0,1.1,0.8,2,1.8,2.2c-0.6,4-1.9,9.5-4.8,10.8c-3.8,1.7-5.9-1.3-6.8-3.6c0.9-0.3,1.5-1.2,1.5-2.2c0-1.3-1-2.3-2.2-2.3
			c-1.2,0-2.2,1-2.2,2.3c0,1.3,1,2.3,2.2,2.3c0,0,0,0,0,0c-0.1,2.3-0.4,5.6-2.1,6.3c-1.9,0.8-6.5-3.5-8.9-6c0.4-0.4,0.7-1,0.7-1.6
			c0-1.3-1-2.3-2.2-2.3c-1.2,0-2.2,1-2.2,2.3c0,1.3,1,2.3,2.2,2.3c0.3,0,0.7-0.1,1-0.2c2,4.4,6.4,14.6,5.9,18.7c0,0-1.1,1.3,0,2.1
			c1.1,0.8,18.3,0.6,18.3,0.6s17.3,0.2,18.3-0.6c1.1-0.8,0-2.1,0-2.1c-0.4-4.1,4-14.3,5.9-18.7c0.3,0.1,0.6,0.2,1,0.2
			c1.2,0,2.2-1,2.2-2.3C313.1,51.6,312.1,50.6,310.9,50.6z"/>
	</g>
</g>
</svg>
