<?xml version="1.0" encoding="utf-8"?>
<!-- Generator: Adobe Illustrator 19.2.0, SVG Export Plug-In . SVG Version: 6.00 Build 0)  -->
<svg version="1.1" id="Layer_1" xmlns="http://www.w3.org/2000/svg" xmlns:xlink="http://www.w3.org/1999/xlink" x="0px" y="0px"
	 viewBox="0 0 261.6 261" style="enable-background:new 0 0 261.6 261;" xml:space="preserve">
<style type="text/css">
	.st0{fill:url(#SVGID_1_);}
	.st1{clip-path:url(#SVGID_3_);fill:#FFFFFF;}
	.st2{fill:#FFFFFF;}
	.st3{clip-path:url(#SVGID_5_);fill:#FFFFFF;}
</style>
<g>
	<g>
		<g>
			<linearGradient id="SVGID_1_" gradientUnits="userSpaceOnUse" x1="2.2835" y1="130.5" x2="259.3169" y2="130.5">
				<stop  offset="0" style="stop-color:#82B6B9"/>
				<stop  offset="1" style="stop-color:#2A2C46"/>
			</linearGradient>
			<polygon class="st0" points="130.8,259 2.3,130.5 130.8,2 259.3,130.5 			"/>
			<g>
				<defs>
					<polygon id="SVGID_2_" points="130.8,258.9 11.4,139.4 127.6,11.5 253.2,136.8 					"/>
				</defs>
				<clipPath id="SVGID_3_">
					<use xlink:href="#SVGID_2_"  style="overflow:visible;"/>
				</clipPath>
				<path class="st1" d="M236.8,168.7c-1.4,17-36.9,30.4-58.8,30.4s-47.4-32.5-55.1-47.4c-7.8-14.8,0-29.7,9.2-33.2
					c9.2-3.5,19.1,12.7,19.1,12.7s-2.1-9.9-4.9-14.8c-2.8-4.9-0.3-5.6,2.1-3.5c3.1,2.7,8.5,10.6,11.3,12c2.8,1.4,8.5-0.7,9.2-5.7
					c0.7-4.9-4.2-19.8-24.7-24c-20.5-4.2-46.7,2.1-50.9,31.1s9.9,50.9,21.2,62.9s29.7,27.6,24.7,48.8c-4.9,21.2-50.6,61.4-69,59.3
					s35.4,16.2,35.4,16.2l149.5,0.2l24.7-136.4L236.8,168.7z"/>
			</g>
			<path class="st2" d="M156.3,129.5c0,0,6.1-0.3,9,0c4.8,0.5,0.2,4.2,1.6,8.5c1.3,4.2,4.2,7.4,4.2,7.4s2.4,3.2-1.6,3.2
				s-10.6-3.2-12.5-8.2S156.3,129.5,156.3,129.5z"/>
		</g>
		<g>
			<defs>
				<path id="SVGID_4_" d="M167.1,88.2c0-8.5-15.9-15.4-35.6-15.4s-35.6,6.9-35.6,15.4l-0.3-34.6c0,0,4.2-22.9,24.8-22.9
					s45.7,5.2,48,20.6C170.7,66.6,167.1,88.2,167.1,88.2z"/>
			</defs>
			<clipPath id="SVGID_5_">
				<use xlink:href="#SVGID_4_"  style="overflow:visible;"/>
			</clipPath>
			<path class="st3" d="M155.9,51.6c-1.2,0-2.2,1-2.2,2.3c0,0.6,0.3,1.2,0.7,1.6c-2.4,2.5-7,6.8-8.9,6c-1.6-0.7-2-4-2.1-6.3
				c0,0,0,0,0,0c1.2,0,2.2-1,2.2-2.3c0-1.3-1-2.3-2.2-2.3c-1.2,0-2.2,1-2.2,2.3c0,1,0.6,1.8,1.5,2.2c-1,2.3-3.1,5.3-6.9,3.6
				c-2.9-1.3-4.2-6.8-4.8-10.8c1-0.2,1.8-1.1,1.8-2.2c0-1.3-1-2.3-2.2-2.3c-1.2,0-2.2,1-2.2,2.3c0,1.1,0.8,2,1.8,2.2
				c-0.6,4-1.9,9.5-4.8,10.8c-3.8,1.7-5.9-1.3-6.8-3.6c0.9-0.3,1.5-1.2,1.5-2.2c0-1.3-1-2.3-2.2-2.3c-1.2,0-2.2,1-2.2,2.3
				c0,1.3,1,2.3,2.2,2.3c0,0,0,0,0,0c-0.1,2.3-0.4,5.6-2.1,6.3c-1.9,0.8-6.5-3.5-8.9-6c0.4-0.4,0.7-1,0.7-1.6c0-1.3-1-2.3-2.2-2.3
				c-1.2,0-2.2,1-2.2,2.3c0,1.3,1,2.3,2.2,2.3c0.3,0,0.7-0.1,1-0.2c2,4.4,6.4,14.6,5.9,18.7c0,0-1.1,1.3,0,2.1
				c1.1,0.8,18.3,0.6,18.3,0.6s17.3,0.2,18.3-0.6c1.1-0.8,0-2.1,0-2.1c-0.4-4.1,4-14.3,5.9-18.7c0.3,0.1,0.6,0.2,1,0.2
				c1.2,0,2.2-1,2.2-2.3C158.1,52.6,157.1,51.6,155.9,51.6z"/>
		</g>
	</g>
</g>
</svg>
