<?xml version="1.0" encoding="utf-8"?>
<!-- Generator: Adobe Illustrator 19.2.0, SVG Export Plug-In . SVG Version: 6.00 Build 0)  -->
<svg version="1.1" id="Layer_1" xmlns="http://www.w3.org/2000/svg" xmlns:xlink="http://www.w3.org/1999/xlink" x="0px" y="0px"
	 viewBox="0 0 120.3 119.7" style="enable-background:new 0 0 120.3 119.7;" xml:space="preserve">
<style type="text/css">
	.st0{fill:url(#SVGID_1_);}
	.st1{clip-path:url(#SVGID_3_);fill:#FFFFFF;}
	.st2{fill:#FFFFFF;}
	.st3{fill:#FFFFFF;stroke:#FFFFFF;stroke-width:0.5984;stroke-miterlimit:10;}
	.st4{clip-path:url(#SVGID_5_);fill:#FFFFFF;}
</style>
<g>
	<g>
		<linearGradient id="SVGID_1_" gradientUnits="userSpaceOnUse" x1="0.5829" y1="59.8333" x2="119.7523" y2="59.8333">
			<stop  offset="0" style="stop-color:#82B6B9"/>
			<stop  offset="1" style="stop-color:#2A2C46"/>
		</linearGradient>
		<polygon class="st0" points="60.2,119.4 0.6,59.8 60.2,0.2 119.8,59.8 		"/>
		<g>
			<defs>
				<polygon id="SVGID_2_" points="60.2,119.4 4.8,64 58.7,4.6 116.9,62.8 				"/>
			</defs>
			<clipPath id="SVGID_3_">
				<use xlink:href="#SVGID_2_"  style="overflow:visible;"/>
			</clipPath>
			<path class="st1" d="M109.3,77.5c-0.7,7.9-17.1,14.1-27.3,14.1s-22-15.1-25.6-22c-3.6-6.9,0-13.8,4.3-15.4s8.9,5.9,8.9,5.9
				s-1-4.6-2.3-6.9c-1.3-2.3-0.1-2.6,1-1.6c1.5,1.2,3.9,4.9,5.2,5.6c1.3,0.7,3.9-0.3,4.3-2.6s-2-9.2-11.5-11.1
				c-9.5-2-21.6,1-23.6,14.4c-2,13.4,4.6,23.6,9.8,29.2c5.2,5.6,13.8,12.8,11.5,22.6c-2.3,9.8-23.5,28.5-32,27.5
				c-8.5-1,16.4,7.5,16.4,7.5l69.3,0.1l11.5-63.3L109.3,77.5z"/>
		</g>
		<path class="st2" d="M72,59.4c0,0,2.8-0.2,4.2,0c2.2,0.2,0.1,1.9,0.7,3.9c0.6,2,2,3.4,2,3.4s1.1,1.5-0.7,1.5s-4.9-1.5-5.8-3.8
			C71.5,62.1,72,59.4,72,59.4z"/>
	</g>
	<g>
		<g>
			<g>
				<path class="st3" d="M97.2,53.2L96.3,54h-5.1v5.1h4.5V60h-4.5v5.2h5.3l0.8,0.8h-7.1V53.2H97.2z"/>
			</g>
		</g>
		<g>
			<g>
				<g>
					<path class="st3" d="M27.4,60.8c-0.4-0.3-1-0.4-1.8-0.4h-1.7v6.1h-1V53.7h3.3c1.4,0,2.4,0.3,3.1,0.9c0.7,0.6,1.1,1.4,1.1,2.4
						c0,1.5-0.8,2.5-2.4,3.1 M23.8,54.5v5H26c1.1,0,1.9-0.2,2.5-0.7c0.6-0.4,0.9-1,0.9-1.8c0-0.8-0.3-1.4-0.9-1.8
						c-0.6-0.4-1.4-0.7-2.5-0.7H23.8z"/>
				</g>
			</g>
			<path class="st3" d="M30.5,66.4c-0.5-0.6-0.9-1.3-1.2-2c-0.2-0.4-0.3-0.8-0.4-1.2c-0.3-0.9-0.6-1.8-1.2-2.3c-1-0.7-2-0.7-2-0.7
				l0-0.3c0-0.5,1.3-0.6,2.6,0.2c0.9,0.6,1.3,1.7,1.6,2.8c0.1,0.4,0.2,0.8,0.4,1.1c0.4,1,0.7,1.7,1.9,2.3L30.5,66.4z"/>
		</g>
	</g>
	<g>
		<defs>
			<path id="SVGID_4_" d="M77,40.2c0-3.9-7.4-7.1-16.5-7.1S44,36.3,44,40.2l-0.2-16.1c0,0,2-10.6,11.5-10.6s21.2,2.4,22.3,9.5
				S77,40.2,77,40.2z"/>
		</defs>
		<clipPath id="SVGID_5_">
			<use xlink:href="#SVGID_4_"  style="overflow:visible;"/>
		</clipPath>
		<path class="st4" d="M71.8,23.2c-0.6,0-1,0.5-1,1.1c0,0.3,0.1,0.6,0.3,0.8c-1.1,1.1-3.3,3.1-4.1,2.8c-0.8-0.3-0.9-1.9-1-2.9
			c0,0,0,0,0,0c0.6,0,1-0.5,1-1.1c0-0.6-0.5-1.1-1-1.1c-0.6,0-1,0.5-1,1.1c0,0.5,0.3,0.9,0.7,1c-0.5,1.1-1.4,2.5-3.2,1.7
			c-1.4-0.6-2-3.2-2.2-5c0.5-0.1,0.8-0.5,0.8-1c0-0.6-0.5-1.1-1-1.1c-0.6,0-1,0.5-1,1.1c0,0.5,0.4,0.9,0.8,1c-0.3,1.8-0.9,4.4-2.2,5
			c-1.8,0.8-2.7-0.6-3.2-1.7c0.4-0.1,0.7-0.5,0.7-1c0-0.6-0.5-1.1-1-1.1c-0.6,0-1,0.5-1,1.1c0,0.6,0.5,1.1,1,1.1c0,0,0,0,0,0
			c0,1.1-0.2,2.6-1,2.9c-0.9,0.4-3-1.6-4.1-2.8c0.2-0.2,0.3-0.5,0.3-0.8c0-0.6-0.5-1.1-1-1.1c-0.6,0-1,0.5-1,1.1
			c0,0.6,0.5,1.1,1,1.1c0.2,0,0.3,0,0.4-0.1c0.9,2,3,6.8,2.8,8.7c0,0-0.5,0.6,0,1c0.5,0.4,8.5,0.3,8.5,0.3s8,0.1,8.5-0.3
			c0.5-0.4,0-1,0-1c-0.2-1.9,1.8-6.6,2.8-8.7c0.1,0.1,0.3,0.1,0.4,0.1c0.6,0,1-0.5,1-1.1C72.8,23.7,72.4,23.2,71.8,23.2z"/>
	</g>
</g>
</svg>
